<svg width="180" height="49" viewBox="0 0 180 49" fill="none" xmlns="http://www.w3.org/2000/svg">
<path fill-rule="evenodd" clip-rule="evenodd" d="M103.343 2.13544C103.828 2.13544 104.222 1.74211 104.222 1.25691C104.222 0.77169 103.828 0.378357 103.343 0.378357C102.857 0.378357 102.463 0.77169 102.463 1.25691C102.463 1.74211 102.857 2.13544 103.343 2.13544ZM36.2459 2.62554C35.76 2.62554 35.3662 3.01885 35.3662 3.50409V6.96325C35.3662 7.4486 35.7601 7.8419 36.2459 7.8419C36.7319 7.8419 37.1257 7.4486 37.1257 6.96335V3.50409C37.1257 3.01894 36.7319 2.62554 36.2459 2.62554ZM12.2225 21.054C12.8692 21.5387 13.1925 22.2386 13.1925 23.1539C13.1925 23.9938 12.8692 24.6508 12.2225 25.1245C11.5759 25.5877 10.676 25.8191 9.5228 25.8191C6.41891 25.8191 4.86697 24.5215 4.86697 21.9263H0.000976562C0.000976562 23.4447 0.388954 24.7799 1.16493 25.9323C1.95169 27.0844 3.08871 27.9944 4.57598 28.662C6.06325 29.3189 7.7122 29.6474 9.5228 29.6474C12.1309 29.6474 14.2056 29.0712 15.7468 27.919C17.2878 26.756 18.0584 25.1569 18.0584 23.1216C18.0584 21.291 17.428 19.7618 16.167 18.5342C14.9061 17.3065 12.8961 16.2782 10.1371 15.449C8.63905 14.9967 7.50204 14.5121 6.72606 13.9952C5.96088 13.4783 5.57827 12.8377 5.57827 12.073C5.57827 11.2546 5.90698 10.5977 6.56441 10.1024C7.22183 9.59626 8.1433 9.34321 9.3288 9.34321C10.5574 9.34321 11.5112 9.64473 12.1902 10.2478C12.8692 10.84 13.2086 11.6746 13.2086 12.7515H18.0584C18.0584 11.3408 17.692 10.0808 16.9593 8.97169C16.2371 7.86252 15.2186 7.00641 13.9038 6.40337C12.589 5.78957 11.0909 5.48266 9.40965 5.48266C7.73914 5.48266 6.23031 5.76265 4.88314 6.32261C3.54675 6.88258 2.51749 7.66331 1.79542 8.66478C1.08411 9.65549 0.728455 10.7862 0.728455 12.0569C0.728455 14.5014 2.06485 16.445 4.73764 17.888C5.71838 18.4157 7.04939 18.9542 8.73067 19.5034C10.4119 20.0418 11.5759 20.5586 12.2225 21.054ZM69.4828 25.4315H59.185V5.80572H54.3352V29.3243H69.4828V25.4315ZM77.388 24.4785H85.8914L87.5241 29.3243H92.6812L83.8707 5.80572H79.3765L70.6144 29.3243H75.7715L77.388 24.4785ZM84.5819 20.5533H78.6975L81.6236 11.75L84.5819 20.5533ZM99.7296 20.7148H103.593L108.007 29.3243H113.212V29.0981L108.12 19.4872C109.532 18.8518 110.582 18.0012 111.272 16.935C111.973 15.8582 112.323 14.5175 112.323 12.9131C112.323 10.6516 111.569 8.90168 110.06 7.66331C108.551 6.42492 106.406 5.80572 103.626 5.80572H94.8797V29.3243H99.7296V20.7148ZM103.642 16.7896H99.7296V9.73088H103.626C104.93 9.73088 105.894 10.0485 106.519 10.6839C107.155 11.3192 107.473 12.1915 107.473 13.3007C107.473 14.3883 107.139 15.2444 106.471 15.869C105.803 16.4828 104.86 16.7896 103.642 16.7896ZM129.119 19.1319H138.431V15.336H129.119V9.73088H140.016V5.80572H124.27V29.3243H140.048V25.4315H129.119V19.1319ZM155.728 5.80572L151.315 13.9144L146.902 5.80572H141.325L148.18 17.468L141.147 29.3243H146.789L151.315 21.0863L155.842 29.3243H161.484L154.452 17.468L161.306 5.80572H155.728ZM168.791 19.1319H178.103V15.336H168.791V9.73088H179.686V5.80572H163.941V29.3243H179.719V25.4315H168.791V19.1319ZM26.258 19.1647C26.258 13.6623 30.7383 9.18571 36.2452 9.18571C41.7522 9.18571 46.2324 13.6623 46.2324 19.1647C46.2324 24.6673 41.7522 29.1439 36.2452 29.1439C30.7383 29.1439 26.258 24.6672 26.258 19.1647ZM28.0164 19.1647C28.0164 23.6984 31.7077 27.3869 36.2452 27.3869C40.7825 27.3869 44.4738 23.6983 44.4738 19.1647C44.4738 14.6312 40.7825 10.9427 36.2452 10.9427C31.7077 10.9427 28.0164 14.6312 28.0164 19.1647ZM46.7065 7.46981C47.05 7.12666 47.6067 7.12666 47.9502 7.46981C48.2935 7.81286 48.2935 8.36909 47.95 8.71213L45.502 11.1582C45.3302 11.3299 45.1052 11.4156 44.8802 11.4156C44.6551 11.4156 44.4301 11.3299 44.2585 11.1582C43.9151 10.8152 43.9151 10.2591 44.2585 9.91592L46.7065 7.46981ZM28.2325 27.1713C27.889 26.8283 27.3324 26.8282 26.9889 27.1713L24.5406 29.6173C24.1972 29.9606 24.1972 30.5167 24.5405 30.8599C24.7124 31.0316 24.9373 31.1173 25.1624 31.1173C25.3874 31.1173 25.6124 31.0316 25.784 30.8599L28.2322 28.4137C28.5757 28.0707 28.5757 27.5143 28.2325 27.1713ZM48.4569 18.2862H51.9191C52.4047 18.2862 52.7983 18.6795 52.7984 19.1648C52.7984 19.65 52.4049 20.0434 51.9191 20.0434H48.4569C47.9711 20.0434 47.5777 19.6499 47.5777 19.1648C47.5777 18.6795 47.9714 18.2862 48.4569 18.2862ZM24.0338 18.2862H20.5718C20.0861 18.2862 19.6925 18.6795 19.6925 19.1648C19.6925 19.6499 20.0861 20.0434 20.5718 20.0434H24.0338C24.5197 20.0434 24.9131 19.65 24.9131 19.1648C24.9131 18.6795 24.5197 18.2862 24.0338 18.2862ZM25.7843 7.46982L28.2325 9.91582C28.5759 10.259 28.5759 10.8152 28.2326 11.1585C28.0607 11.3301 27.8357 11.4158 27.6107 11.4158C27.3857 11.4158 27.1608 11.33 26.9891 11.1585L24.5411 8.71235C24.1974 8.3692 24.1974 7.81297 24.5409 7.46982C24.8843 7.12687 25.4411 7.12667 25.7843 7.46982ZM47.9502 29.6175L45.5021 27.1714C45.1587 26.8282 44.6021 26.8282 44.2585 27.1714C43.9151 27.5145 43.9151 28.0707 44.2585 28.4137L46.7065 30.8598C46.8783 31.0314 47.1033 31.1172 47.3284 31.1172C47.5534 31.1172 47.7784 31.0314 47.9502 30.8598C48.2937 30.5167 48.2937 29.9606 47.9502 29.6175ZM59.5328 45.9708L59.2886 47.7499C59.2227 48.2306 58.7791 48.5667 58.298 48.5007C57.8168 48.4347 57.4803 47.9917 57.5463 47.5109L57.671 46.6023L53.3683 46.0126C50.5661 45.6286 48.5196 43.2491 48.4682 40.5076L40.7229 39.4462C37.227 38.967 34.773 35.7356 35.2525 32.2425L35.5335 30.1948C35.5996 29.7138 36.043 29.3778 36.5241 29.4437C37.0053 29.5097 37.3418 29.9527 37.2758 30.4335L36.9947 32.4812C36.6469 35.0144 38.4267 37.358 40.962 37.7055L48.7072 38.7669C49.4955 36.1404 52.1076 34.3995 54.9098 34.7835L59.2126 35.3733L59.3373 34.4646C59.4032 33.9838 59.8469 33.6476 60.3279 33.7136C60.809 33.7795 61.1456 34.2225 61.0795 34.7033L60.8353 36.4824L60.7241 37.2923L65.5892 37.959C66.0703 38.025 66.4069 38.4679 66.3408 38.9488C66.2748 39.4296 65.8312 39.7658 65.3501 39.6998L60.4852 39.0331L59.8829 43.4202L64.748 44.0869C65.2292 44.1528 65.5656 44.5958 65.4997 45.0767C65.4336 45.5575 64.9901 45.8937 64.5091 45.8276L59.644 45.1609L59.5328 45.9708ZM50.2622 39.867C49.9691 42.0028 51.4696 43.9789 53.6074 44.272V44.2721L57.9102 44.8618L58.9737 37.1142L54.6708 36.5245C52.5332 36.2315 50.5554 37.731 50.2622 39.867ZM100.084 1.25691C100.084 1.74211 99.6899 2.13544 99.2041 2.13544C98.7183 2.13544 98.3244 1.74211 98.3244 1.25691C98.3244 0.77169 98.7183 0.378357 99.2041 0.378357C99.6899 0.378357 100.084 0.77169 100.084 1.25691Z" fill="white"/>
</svg>
